<svg xmlns="http://www.w3.org/2000/svg" xmlns:xlink="http://www.w3.org/1999/xlink" width="500" zoomAndPan="magnify" viewBox="0 0 375 374.999991" height="500" preserveAspectRatio="xMidYMid meet" version="1.2"><g id="614deebe4e"><path style=" stroke:none;fill-rule:nonzero;fill:#825596;fill-opacity:1;" d="M 189 127.5 L 189 145.5 L 186 145.5 L 186 127.5 M 189 148.5 L 189 166.5 L 186 166.5 L 186 148.5 M 189 169.5 L 189 187.5 L 186 187.5 L 186 169.5 M 189 190.5 L 189 208.5 L 186 208.5 L 186 190.5 M 189 211.5 L 189 229.5 L 186 229.5 L 186 211.5 M 189 232.5 L 189 246 L 186 246 L 186 232.5 "/><path style="fill:none;stroke-width:4;stroke-linecap:round;stroke-linejoin:round;stroke:#825596;stroke-opacity:1;stroke-miterlimit:4;" d="M 150.000021 -4.000011 L 158.000022 1.99999 L 150.000021 7.99999 " transform="matrix(0,0.75,-0.75,0,188.999992,127.499992)"/></g></svg>