<svg xmlns="http://www.w3.org/2000/svg" xmlns:xlink="http://www.w3.org/1999/xlink" width="500" zoomAndPan="magnify" viewBox="0 0 375 374.999991" height="500" preserveAspectRatio="xMidYMid meet" version="1.2"><defs><clipPath id="2269426501"><path d="M 0 68.628906 L 375 68.628906 L 375 374.628906 L 0 374.628906 Z M 0 68.628906 "/></clipPath></defs><g id="5a9ec3ffb0"><g clip-rule="nonzero" clip-path="url(#2269426501)"><path style=" stroke:none;fill-rule:nonzero;fill:#825596;fill-opacity:1;" d="M 187.5 0 C 84.148438 0 0 84.148438 0 187.5 C 0 290.851562 84.148438 375 187.5 375 C 290.851562 375 375 290.851562 375 187.5 C 375 84.148438 290.851562 0 187.5 0 Z M 187.5 371.824219 C 85.886719 371.824219 3.175781 289.113281 3.175781 187.5 C 3.175781 85.886719 85.886719 3.175781 187.5 3.175781 C 289.113281 3.175781 371.824219 85.886719 371.824219 187.5 C 371.824219 289.113281 289.113281 371.824219 187.5 371.824219 Z M 187.5 371.824219 "/></g><g style="fill:#825596;fill-opacity:1;"><g transform="translate(59.31542, 73.679321)"><path style="stroke:none" d="M 1.28125 -1.109375 L -11.625 -15.953125 L -10.28125 -17.125 L 10.5625 -10.8125 L 10.609375 -10.859375 L -1.484375 -24.765625 L -0.609375 -25.515625 L 12.296875 -10.671875 L 10.9375 -9.5 L -9.90625 -15.8125 L -9.953125 -15.78125 L 2.140625 -1.859375 Z M 1.28125 -1.109375 "/></g></g><g style="fill:#825596;fill-opacity:1;"><g transform="translate(77.953613, 58.096265)"><path style="stroke:none" d="M 1.40625 -0.9375 L -9.53125 -17.296875 L 1.5 -24.671875 L 2.109375 -23.75 L -7.984375 -17.015625 L -3.65625 -10.546875 L 5.5 -16.65625 L 6.109375 -15.734375 L -3.046875 -9.625 L 1.734375 -2.484375 L 12.0625 -9.375 L 12.671875 -8.46875 Z M 1.40625 -0.9375 "/></g></g><g style="fill:#825596;fill-opacity:1;"><g transform="translate(96.434085, 45.823319)"><path style="stroke:none" d="M 5.484375 -2.578125 L -8.140625 -17.921875 L -7.046875 -18.4375 L 5.78125 -4 L 5.8125 -4.03125 L 2.828125 -23.09375 L 4.484375 -23.875 L 17.296875 -9.4375 L 17.328125 -9.453125 L 14.34375 -28.515625 L 15.421875 -29.03125 L 18.59375 -8.765625 L 17 -8.015625 L 4.125 -22.515625 L 4.078125 -22.5 L 7.046875 -3.328125 Z M 5.484375 -2.578125 "/></g></g><g style="fill:#825596;fill-opacity:1;"><g transform="translate(126.607547, 32.699352)"><path style="stroke:none" d=""/></g></g><g style="fill:#825596;fill-opacity:1;"><g transform="translate(140.113467, 28.269157)"><path style="stroke:none" d="M 11.125 -1.5 C 9.675781 -1.21875 8.285156 -1.203125 6.953125 -1.453125 C 5.617188 -1.710938 4.414062 -2.210938 3.34375 -2.953125 C 2.269531 -3.703125 1.359375 -4.65625 0.609375 -5.8125 C -0.128906 -6.976562 -0.648438 -8.316406 -0.953125 -9.828125 C -1.253906 -11.328125 -1.289062 -12.753906 -1.0625 -14.109375 C -0.84375 -15.460938 -0.394531 -16.6875 0.28125 -17.78125 C 0.957031 -18.882812 1.835938 -19.8125 2.921875 -20.5625 C 4.003906 -21.3125 5.242188 -21.828125 6.640625 -22.109375 C 7.941406 -22.367188 9.210938 -22.347656 10.453125 -22.046875 C 11.691406 -21.753906 12.816406 -21.226562 13.828125 -20.46875 C 14.835938 -19.71875 15.632812 -18.78125 16.21875 -17.65625 L 15.203125 -17.140625 C 14.640625 -18.140625 13.921875 -18.96875 13.046875 -19.625 C 12.179688 -20.28125 11.210938 -20.734375 10.140625 -20.984375 C 9.078125 -21.242188 7.976562 -21.257812 6.84375 -21.03125 C 5.195312 -20.695312 3.8125 -20.003906 2.6875 -18.953125 C 1.5625 -17.910156 0.765625 -16.613281 0.296875 -15.0625 C -0.171875 -13.519531 -0.222656 -11.847656 0.140625 -10.046875 C 0.503906 -8.285156 1.207031 -6.78125 2.25 -5.53125 C 3.289062 -4.289062 4.566406 -3.40625 6.078125 -2.875 C 7.585938 -2.34375 9.210938 -2.25 10.953125 -2.59375 C 12.628906 -2.925781 14.039062 -3.613281 15.1875 -4.65625 C 16.34375 -5.695312 17.160156 -6.96875 17.640625 -8.46875 C 18.128906 -9.976562 18.195312 -11.613281 17.84375 -13.375 L 5.34375 -10.875 L 5.140625 -11.953125 L 18.765625 -14.671875 L 20.859375 -4.15625 L 19.78125 -3.953125 L 18.75 -9.015625 L 18.71875 -9 C 18.332031 -7.09375 17.484375 -5.46875 16.171875 -4.125 C 14.859375 -2.789062 13.175781 -1.914062 11.125 -1.5 Z M 11.125 -1.5 "/></g></g><g style="fill:#825596;fill-opacity:1;"><g transform="translate(168.296864, 23.247377)"><path style="stroke:none" d="M 15.921875 -0.28125 C 15.265625 -0.25 14.757812 -0.429688 14.40625 -0.828125 C 14.050781 -1.234375 13.757812 -1.757812 13.53125 -2.40625 L 12.15625 -6.59375 C 11.90625 -7.40625 11.507812 -8.070312 10.96875 -8.59375 C 10.4375 -9.125 9.6875 -9.363281 8.71875 -9.3125 L 2.359375 -8.984375 L 2.828125 -0.15625 L 1.6875 -0.09375 L 0.640625 -19.734375 L 9.34375 -20.1875 C 11.289062 -20.289062 12.863281 -19.882812 14.0625 -18.96875 C 15.257812 -18.0625 15.90625 -16.789062 16 -15.15625 C 16.0625 -13.789062 15.660156 -12.609375 14.796875 -11.609375 C 13.941406 -10.609375 12.742188 -9.960938 11.203125 -9.671875 L 11.203125 -9.640625 C 11.722656 -9.367188 12.15625 -8.972656 12.5 -8.453125 C 12.84375 -7.929688 13.128906 -7.34375 13.359375 -6.6875 L 14.671875 -2.65625 C 14.785156 -2.238281 14.9375 -1.910156 15.125 -1.671875 C 15.320312 -1.429688 15.597656 -1.320312 15.953125 -1.34375 C 16.578125 -1.382812 17.097656 -1.78125 17.515625 -2.53125 L 18.296875 -1.8125 C 17.972656 -1.289062 17.601562 -0.910156 17.1875 -0.671875 C 16.769531 -0.429688 16.347656 -0.300781 15.921875 -0.28125 Z M 2.296875 -10.109375 L 9.859375 -10.5 C 11.429688 -10.582031 12.671875 -11.035156 13.578125 -11.859375 C 14.484375 -12.691406 14.90625 -13.757812 14.84375 -15.0625 C 14.769531 -16.375 14.238281 -17.394531 13.25 -18.125 C 12.257812 -18.851562 10.976562 -19.175781 9.40625 -19.09375 L 1.84375 -18.703125 Z M 2.296875 -10.109375 "/></g></g><g style="fill:#825596;fill-opacity:1;"><g transform="translate(192.968917, 22.378194)"><path style="stroke:none" d="M 0.28125 0.015625 L 9.5625 -18.984375 L 11.0625 -18.859375 L 17.265625 1.359375 L 16.03125 1.265625 L 14.453125 -3.984375 L 3.90625 -4.8125 L 1.515625 0.125 Z M 4.375 -5.875 L 14.125 -5.109375 L 10.265625 -17.796875 L 10.203125 -17.796875 Z M 4.375 -5.875 "/></g></g><g style="fill:#825596;fill-opacity:1;"><g transform="translate(216.758355, 24.615556)"><path style="stroke:none" d="M 1.65625 0.359375 L 5.796875 -18.875 L 11.828125 -17.578125 C 15.097656 -16.878906 17.425781 -15.507812 18.8125 -13.46875 C 20.207031 -11.4375 20.566406 -8.867188 19.890625 -5.765625 C 19.222656 -2.671875 17.835938 -0.488281 15.734375 0.78125 C 13.640625 2.0625 10.957031 2.351562 7.6875 1.65625 Z M 3 -0.46875 L 7.921875 0.59375 C 10.804688 1.21875 13.1875 0.960938 15.0625 -0.171875 C 16.945312 -1.316406 18.179688 -3.265625 18.765625 -6.015625 C 19.359375 -8.773438 19.03125 -11.054688 17.78125 -12.859375 C 16.539062 -14.660156 14.476562 -15.875 11.59375 -16.5 L 6.671875 -17.5625 Z M 3 -0.46875 "/></g></g><g style="fill:#825596;fill-opacity:1;"><g transform="translate(241.596415, 30.4401)"><path style="stroke:none" d="M 8.1875 3.703125 C 5.945312 2.890625 4.429688 1.632812 3.640625 -0.0625 C 2.847656 -1.769531 2.851562 -3.742188 3.65625 -5.984375 L 8.015625 -18.015625 L 9.078125 -17.640625 L 4.71875 -5.609375 C 4.039062 -3.703125 4.03125 -2.019531 4.6875 -0.5625 C 5.34375 0.894531 6.628906 1.972656 8.546875 2.671875 C 10.472656 3.367188 12.148438 3.367188 13.578125 2.671875 C 15.015625 1.984375 16.078125 0.675781 16.765625 -1.25 L 21.125 -13.28125 L 22.234375 -12.890625 L 17.875 -0.859375 C 17.070312 1.378906 15.816406 2.898438 14.109375 3.703125 C 12.410156 4.515625 10.4375 4.515625 8.1875 3.703125 Z M 8.1875 3.703125 "/></g></g><g style="fill:#825596;fill-opacity:1;"><g transform="translate(264.25373, 39.069912)"><path style="stroke:none" d="M 0.25 0.125 L 16.1875 -13.796875 L 17.515625 -13.109375 L 15.375 7.953125 L 14.28125 7.375 L 14.859375 1.921875 L 5.46875 -2.9375 L 1.34375 0.703125 Z M 6.3125 -3.71875 L 15 0.765625 L 16.375 -12.421875 L 16.3125 -12.453125 Z M 6.3125 -3.71875 "/></g></g><g style="fill:#825596;fill-opacity:1;"><g transform="translate(285.308587, 50.46238)"><path style="stroke:none" d="M 5.953125 4.078125 L 16.453125 -11.25 L 10.734375 -15.171875 L 11.359375 -16.0625 L 23.734375 -7.5625 L 23.109375 -6.671875 L 17.390625 -10.609375 L 6.890625 4.71875 Z M 5.953125 4.078125 "/></g></g><g style="fill:#825596;fill-opacity:1;"><g transform="translate(303.197535, 63.174572)"><path style="stroke:none" d="M 1.265625 1.109375 L 14.25 -13.671875 L 24.21875 -4.921875 L 23.5 -4.09375 L 14.390625 -12.09375 L 9.234375 -6.234375 L 17.5 1.03125 L 16.78125 1.84375 L 8.515625 -5.421875 L 2.84375 1.03125 L 12.171875 9.21875 L 11.453125 10.046875 Z M 1.265625 1.109375 "/></g></g></g></svg>